<?xml version="1.0" encoding="UTF-8" standalone="no"?>
<svg
   width="3020.7229"
   height="708.013"
   viewBox="0 0 3020.7229 708.013"
   version="1.1"
   xml:space="preserve"
   style="clip-rule:evenodd;fill-rule:evenodd;stroke-linejoin:round;stroke-miterlimit:2"
   id="svg31"
   sodipodi:docname="Moya - Logo.svg"
   inkscape:version="1.2.2 (b0a8486541, 2022-12-01)"
   inkscape:export-xdpi="7.7286716"
   inkscape:export-ydpi="7.7286716"
   inkscape:export-filename="Moya - Logo.png"
   xmlns:inkscape="http://www.inkscape.org/namespaces/inkscape"
   xmlns:sodipodi="http://sodipodi.sourceforge.net/DTD/sodipodi-0.dtd"
   xmlns:xlink="http://www.w3.org/1999/xlink"
   xmlns="http://www.w3.org/2000/svg"
   xmlns:svg="http://www.w3.org/2000/svg"
   xmlns:rdf="http://www.w3.org/1999/02/22-rdf-syntax-ns#"
   xmlns:cc="http://creativecommons.org/ns#"
   xmlns:dc="http://purl.org/dc/elements/1.1/"><defs
   id="defs12"><clipPath
     id="_clip1">
                <path
   d="M 1472,126.055 H 197.41 C 120.252,126.055 64,187.549 64,271.896 v 106.27 h 1274.59 c 77.16,0 133.41,-61.494 133.41,-145.841 z"
   id="path11" />
            </clipPath><linearGradient
     inkscape:collect="always"
     id="linearGradient19925"><stop
       style="stop-color:#d1f040;stop-opacity:1;"
       offset="0"
       id="stop19921" /><stop
       style="stop-color:#40e2f0;stop-opacity:1;"
       offset="1"
       id="stop19923" /></linearGradient><linearGradient
     inkscape:collect="always"
     xlink:href="#linearGradient19925"
     id="linearGradient19927"
     x1="45.24036"
     y1="265.13995"
     x2="45.24036"
     y2="806.66895"
     gradientUnits="userSpaceOnUse" /><linearGradient
     inkscape:collect="always"
     xlink:href="#linearGradient19925"
     id="linearGradient26525"
     x1="0"
     y1="0"
     x2="0"
     y2="541.52899"
     gradientUnits="userSpaceOnUse" /><linearGradient
     inkscape:collect="always"
     xlink:href="#linearGradient19925"
     id="linearGradient465"
     gradientUnits="userSpaceOnUse"
     x1="45.24036"
     y1="265.13995"
     x2="45.24036"
     y2="806.66895" /><linearGradient
     inkscape:collect="always"
     xlink:href="#linearGradient19925"
     id="linearGradient467"
     gradientUnits="userSpaceOnUse"
     x1="45.24036"
     y1="265.13995"
     x2="45.24036"
     y2="806.66895" /><linearGradient
     inkscape:collect="always"
     xlink:href="#linearGradient19925"
     id="linearGradient469"
     gradientUnits="userSpaceOnUse"
     x1="45.24036"
     y1="265.13995"
     x2="45.24036"
     y2="806.66895" /><linearGradient
     inkscape:collect="always"
     xlink:href="#linearGradient19925"
     id="linearGradient471"
     gradientUnits="userSpaceOnUse"
     x1="45.24036"
     y1="265.13995"
     x2="45.24036"
     y2="806.66895" /><linearGradient
     inkscape:collect="always"
     xlink:href="#linearGradient19925"
     id="linearGradient473"
     gradientUnits="userSpaceOnUse"
     x1="45.24036"
     y1="265.13995"
     x2="45.24036"
     y2="806.66895" /><linearGradient
     inkscape:collect="always"
     xlink:href="#linearGradient19925"
     id="linearGradient475"
     gradientUnits="userSpaceOnUse"
     x1="45.24036"
     y1="265.13995"
     x2="45.24036"
     y2="806.66895" /><linearGradient
     inkscape:collect="always"
     xlink:href="#linearGradient19925"
     id="linearGradient477"
     gradientUnits="userSpaceOnUse"
     x1="45.24036"
     y1="265.13995"
     x2="45.24036"
     y2="806.66895" /><linearGradient
     inkscape:collect="always"
     xlink:href="#linearGradient19925"
     id="linearGradient479"
     gradientUnits="userSpaceOnUse"
     x1="45.24036"
     y1="265.13995"
     x2="45.24036"
     y2="806.66895" /><linearGradient
     inkscape:collect="always"
     xlink:href="#linearGradient19925"
     id="linearGradient481"
     gradientUnits="userSpaceOnUse"
     x1="45.24036"
     y1="265.13995"
     x2="45.24036"
     y2="806.66895" /><linearGradient
     inkscape:collect="always"
     xlink:href="#linearGradient19925"
     id="linearGradient483"
     gradientUnits="userSpaceOnUse"
     x1="45.24036"
     y1="265.13995"
     x2="45.24036"
     y2="806.66895" /><linearGradient
     inkscape:collect="always"
     xlink:href="#linearGradient19925"
     id="linearGradient485"
     gradientUnits="userSpaceOnUse"
     x1="45.24036"
     y1="265.13995"
     x2="45.24036"
     y2="806.66895" /><linearGradient
     inkscape:collect="always"
     xlink:href="#linearGradient19925"
     id="linearGradient487"
     gradientUnits="userSpaceOnUse"
     x1="45.24036"
     y1="265.13995"
     x2="45.24036"
     y2="806.66895" /><linearGradient
     inkscape:collect="always"
     xlink:href="#linearGradient19925"
     id="linearGradient489"
     gradientUnits="userSpaceOnUse"
     x1="45.24036"
     y1="265.13995"
     x2="45.24036"
     y2="806.66895" /><linearGradient
     inkscape:collect="always"
     xlink:href="#linearGradient19925"
     id="linearGradient491"
     gradientUnits="userSpaceOnUse"
     x1="45.24036"
     y1="265.13995"
     x2="45.24036"
     y2="806.66895" /><linearGradient
     inkscape:collect="always"
     xlink:href="#linearGradient19925"
     id="linearGradient493"
     gradientUnits="userSpaceOnUse"
     x1="45.24036"
     y1="265.13995"
     x2="45.24036"
     y2="806.66895" /><linearGradient
     inkscape:collect="always"
     xlink:href="#linearGradient19925"
     id="linearGradient495"
     gradientUnits="userSpaceOnUse"
     x1="45.24036"
     y1="265.13995"
     x2="45.24036"
     y2="806.66895" /><linearGradient
     inkscape:collect="always"
     xlink:href="#linearGradient19925"
     id="linearGradient497"
     gradientUnits="userSpaceOnUse"
     x1="45.24036"
     y1="265.13995"
     x2="45.24036"
     y2="806.66895" /><linearGradient
     inkscape:collect="always"
     xlink:href="#linearGradient19925"
     id="linearGradient499"
     gradientUnits="userSpaceOnUse"
     x1="45.24036"
     y1="265.13995"
     x2="45.24036"
     y2="806.66895" /><linearGradient
     inkscape:collect="always"
     xlink:href="#linearGradient19925"
     id="linearGradient501"
     gradientUnits="userSpaceOnUse"
     x1="45.24036"
     y1="265.13995"
     x2="45.24036"
     y2="806.66895" /><linearGradient
     inkscape:collect="always"
     xlink:href="#linearGradient19925"
     id="linearGradient503"
     gradientUnits="userSpaceOnUse"
     x1="45.24036"
     y1="265.13995"
     x2="45.24036"
     y2="806.66895" /><linearGradient
     inkscape:collect="always"
     xlink:href="#linearGradient19925"
     id="linearGradient505"
     gradientUnits="userSpaceOnUse"
     x1="45.24036"
     y1="265.13995"
     x2="45.24036"
     y2="806.66895" /><linearGradient
     inkscape:collect="always"
     xlink:href="#linearGradient19925"
     id="linearGradient507"
     gradientUnits="userSpaceOnUse"
     x1="45.24036"
     y1="265.13995"
     x2="45.24036"
     y2="806.66895" /><linearGradient
     inkscape:collect="always"
     xlink:href="#linearGradient19925"
     id="linearGradient509"
     gradientUnits="userSpaceOnUse"
     x1="45.24036"
     y1="265.13995"
     x2="45.24036"
     y2="806.66895" /><linearGradient
     inkscape:collect="always"
     xlink:href="#linearGradient19925"
     id="linearGradient511"
     gradientUnits="userSpaceOnUse"
     x1="45.24036"
     y1="265.13995"
     x2="45.24036"
     y2="806.66895" /><linearGradient
     inkscape:collect="always"
     xlink:href="#linearGradient19925"
     id="linearGradient513"
     gradientUnits="userSpaceOnUse"
     x1="45.24036"
     y1="265.13995"
     x2="45.24036"
     y2="806.66895" /><linearGradient
     inkscape:collect="always"
     xlink:href="#linearGradient19925"
     id="linearGradient515"
     gradientUnits="userSpaceOnUse"
     x1="45.24036"
     y1="265.13995"
     x2="45.24036"
     y2="806.66895" /><linearGradient
     inkscape:collect="always"
     xlink:href="#linearGradient19925"
     id="linearGradient517"
     gradientUnits="userSpaceOnUse"
     x1="0"
     y1="0"
     x2="0"
     y2="541.52899" /><linearGradient
     inkscape:collect="always"
     xlink:href="#linearGradient19925"
     id="linearGradient519"
     gradientUnits="userSpaceOnUse"
     x1="0"
     y1="0"
     x2="0"
     y2="541.52899" /><linearGradient
     inkscape:collect="always"
     xlink:href="#linearGradient19925"
     id="linearGradient521"
     gradientUnits="userSpaceOnUse"
     x1="0"
     y1="0"
     x2="0"
     y2="541.52899" /></defs><title
   id="title1961">Insomnia XXIII - Moya - Logo</title><sodipodi:namedview
   id="namedview33"
   pagecolor="#505050"
   bordercolor="#ffffff"
   borderopacity="1"
   inkscape:showpageshadow="0"
   inkscape:pageopacity="0"
   inkscape:pagecheckerboard="1"
   inkscape:deskcolor="#505050"
   showgrid="false"
   inkscape:zoom="0.30452732"
   inkscape:cx="461.37075"
   inkscape:cy="857.06595"
   inkscape:window-width="2560"
   inkscape:window-height="1372"
   inkscape:window-x="0"
   inkscape:window-y="0"
   inkscape:window-maximized="1"
   inkscape:current-layer="g628" />
    <g
   inkscape:groupmode="layer"
   id="layer3"
   inkscape:label="Logo"
   transform="translate(100.00026,100)"><g
     inkscape:groupmode="layer"
     id="layer1"
     inkscape:label="Background"
     style="clip-rule:evenodd;fill-rule:evenodd;stroke-linejoin:round;stroke-miterlimit:2"><text
       xml:space="preserve"
       style="font-size:66.6667px;line-height:1.25;font-family:'Bebas Neue';-inkscape-font-specification:'Bebas Neue'"
       x="451.52115"
       y="-108.08789"
       id="text798"><tspan
         sodipodi:role="line"
         id="tspan796"
         x="451.52115"
         y="-108.08789" /></text></g><g
     inkscape:groupmode="layer"
     id="g271"
     inkscape:label="XXII"
     style="clip-rule:evenodd;display:inline;fill-rule:evenodd;stroke-linejoin:round;stroke-miterlimit:2" /><g
     inkscape:groupmode="layer"
     id="layer2"
     inkscape:label="Insomnia"
     style="clip-rule:evenodd;fill-rule:evenodd;stroke-linejoin:round;stroke-miterlimit:2" /></g>
<metadata
   id="metadata1959"><rdf:RDF><cc:Work
       rdf:about=""><dc:title>Insomnia XXIII - Moya - Logo</dc:title><dc:date>2023-05-01</dc:date><dc:creator><cc:Agent><dc:title>Christer Warén</dc:title></cc:Agent></dc:creator></cc:Work></rdf:RDF></metadata><g
   inkscape:groupmode="layer"
   id="layer4"
   inkscape:label="Text"
   style="display:none"
   transform="translate(104.10022,100)"><text
     xml:space="preserve"
     style="font-size:366.667px;line-height:1.25;font-family:'Bebas Neue';-inkscape-font-specification:'Bebas Neue';clip-rule:evenodd;display:inline;fill:#ffffff;fill-rule:evenodd;stroke-linejoin:round;stroke-miterlimit:2"
     x="1675.8524"
     y="380.50662"
     id="text322"><tspan
       sodipodi:role="line"
       id="tspan320"
       x="1675.8524"
       y="380.50662"
       style="font-size:366.667px;fill:#ffffff">KAUPPA</tspan></text><g
     aria-label="|"
     id="text537"
     style="font-size:333.333px;line-height:1.25;font-family:'Bebas Neue';-inkscape-font-specification:'Bebas Neue';fill:#ffffff"
     transform="matrix(0.41219098,0,0,1,914.65231,85.951712)"><path
       d="m 1610.5823,1.3882812 h 30 V 334.72129 h -30 z"
       id="path539"
       style="fill:#ffffff" /></g></g><g
   inkscape:groupmode="layer"
   id="g628"
   inkscape:label="Graphic Text"
   style="display:inline"
   transform="translate(104.10022,100)"><g
     id="g994"
     transform="translate(141.20239)"><g
       style="clip-rule:evenodd;fill-rule:evenodd;stroke-linecap:round;stroke-linejoin:round;stroke-miterlimit:2"
       id="g463"
       transform="matrix(0.98486593,0,0,0.98486593,-157.96275,-12.660226)"><g
         id="g31376"><g
           id="g324"
           transform="translate(-45.240359,-265.13996)"
           style="fill:url(#linearGradient19927);fill-opacity:1;stroke:url(#linearGradient19927);stroke-opacity:1"><path
             d="m 1251.6471,584.99464 c -25.0969,23.1577 -57.6759,51.49542 -79.6819,72.21547 l -41.5913,-72.21547 h -49.0578 l -4.3272,16.14945 c 17.7355,30.47067 35.8952,62.76957 53.2443,93.54494 l -103.3748,93.54494 -4.3273,16.14945 h 49.0578 c 24.7105,-22.853 57.3712,-51.49542 79.6003,-71.91077 l 41.6729,71.91077 h 49.0578 l 4.4089,-16.45416 -53.6307,-93.24023 103.6796,-93.54494 4.3272,-16.14945 z"
             id="path359"
             style="font-weight:900;font-size:136px;font-family:Orbitron-Black, Orbitron;fill:url(#linearGradient465);fill-opacity:1;stroke:url(#linearGradient467);stroke-width:4.5706px;stroke-opacity:1" /><path
             d="m 1499.069,584.99464 c -25.0969,23.1577 -57.6759,51.49542 -79.682,72.21547 l -41.5912,-72.21547 h -49.0578 l -4.3272,16.14945 c 17.7355,30.47067 35.8952,62.76957 53.2443,93.54494 l -103.3749,93.54494 -4.3272,16.14945 h 49.0578 c 24.7105,-22.853 57.3712,-51.49542 79.6003,-71.91077 l 41.6729,71.91077 h 49.0578 l 4.4089,-16.45416 -53.6307,-93.24023 103.6796,-93.54494 4.3272,-16.14945 z"
             id="path361"
             style="font-weight:900;font-size:136px;font-family:Orbitron-Black, Orbitron;fill:url(#linearGradient469);fill-opacity:1;stroke:url(#linearGradient471);stroke-width:4.5706px;stroke-opacity:1" /><path
             d="m 1520.7266,804.38342 h 47.5343 l 58.785,-219.38878 h -47.5343 z"
             id="path363"
             style="font-weight:900;font-size:136px;font-family:Orbitron-Black, Orbitron;fill:url(#linearGradient473);fill-opacity:1;stroke:url(#linearGradient475);stroke-width:4.5706px;stroke-opacity:1" /><path
             d="m 1587.7619,804.38342 h 47.5342 l 58.785,-219.38878 h -47.5342 z"
             id="path365"
             style="font-weight:900;font-size:136px;font-family:Orbitron-Black, Orbitron;fill:url(#linearGradient477);fill-opacity:1;stroke:url(#linearGradient479);stroke-width:4.5706px;stroke-opacity:1" /><path
             d="m 1654.7972,804.38342 h 47.5342 l 58.785,-219.38878 h -47.5342 z"
             id="path367"
             style="font-weight:900;font-size:136px;font-family:Orbitron-Black, Orbitron;fill:url(#linearGradient481);fill-opacity:1;stroke:url(#linearGradient483);stroke-width:4.5706px;stroke-opacity:1" /><path
             d="m 108.32191,557.92616 h 47.53424 l 58.785,-219.38878 h -47.53423 z"
             id="path370"
             style="font-weight:900;font-size:136px;font-family:Orbitron-Black, Orbitron;fill:url(#linearGradient485);fill-opacity:1;stroke:url(#linearGradient487);stroke-width:4.5706px;stroke-linecap:butt;stroke-opacity:1" /><path
             d="M 366.19731,484.79656 282.59053,338.53738 h -48.75306 l -58.785,219.38878 H 222.282 l 39.35329,-146.8686 84.05289,146.8686 h 48.75307 l 58.785,-219.38878 h -47.83894 z"
             id="path372"
             style="font-weight:900;font-size:136px;font-family:Orbitron-Black, Orbitron;fill:url(#linearGradient489);fill-opacity:1;stroke:url(#linearGradient491);stroke-width:4.5706px;stroke-linecap:butt;stroke-opacity:1" /><path
             d="m 693.13528,383.63396 c 6.69496,-24.98595 -8.33176,-45.09658 -33.013,-45.09658 H 530.92667 c -24.98595,0 -50.48521,20.11063 -57.18017,45.09658 l -11.59371,43.26834 c -6.69496,24.98595 8.02706,45.09658 33.013,45.09658 h 126.45326 l -10.28738,38.39304 H 487.01136 l 4.81711,-17.97769 h -47.22953 l -5.47027,20.41534 c -6.69496,24.98595 8.02705,45.09659 33.01299,45.09659 h 129.19562 c 24.68124,0 50.48521,-20.11064 57.18017,-45.09659 l 11.59371,-43.26834 c 6.69495,-24.98594 -8.33176,-45.09658 -33.013,-45.09658 H 510.03549 l 10.28737,-38.39304 h 124.32031 l -4.8171,17.97769 h 47.83894 z"
             id="path374"
             style="font-weight:900;font-size:136px;font-family:Orbitron-Black, Orbitron;fill:url(#linearGradient493);fill-opacity:1;stroke:url(#linearGradient495);stroke-width:4.5706px;stroke-linecap:butt;stroke-opacity:1" /><path
             d="m 782.30978,338.53738 c -24.98594,0 -50.48521,20.11063 -57.18017,45.09658 l -34.61783,129.19561 c -6.69496,24.98595 8.02705,45.09659 33.013,45.09659 h 129.19561 c 24.68124,0 50.48521,-20.11064 57.18017,-45.09659 L 944.5184,383.63396 c 6.69495,-24.98595 -8.33177,-45.09658 -33.013,-45.09658 z m -10.6038,47.53423 H 896.02629 L 862.71478,510.39192 H 738.39447 Z"
             id="path376"
             style="font-weight:900;font-size:136px;font-family:Orbitron-Black, Orbitron;fill:url(#linearGradient497);fill-opacity:1;stroke:url(#linearGradient499);stroke-width:4.5706px;stroke-linecap:butt;stroke-opacity:1" /><path
             d="m 1089.462,427.20701 -50.5895,-88.66963 h -48.75306 l -58.785,219.38878 h 47.22953 l 39.35333,-146.8686 51.7864,89.88846 c 32.0512,-28.64243 67.2152,-60.94133 99.7344,-90.19317 l -39.4349,147.17331 h 47.5342 l 58.785,-219.38878 h -49.0578 z"
             id="path378"
             style="font-weight:900;font-size:136px;font-family:Orbitron-Black, Orbitron;fill:url(#linearGradient501);fill-opacity:1;stroke:url(#linearGradient503);stroke-width:4.5706px;stroke-linecap:butt;stroke-opacity:1" /><path
             d="m 1405.2469,484.79656 -83.6068,-146.25918 h -48.7531 l -58.785,219.38878 h 47.2295 l 39.3533,-146.8686 84.0529,146.8686 h 48.7531 l 58.785,-219.38878 h -47.8389 z"
             id="path380"
             style="font-weight:900;font-size:136px;font-family:Orbitron-Black, Orbitron;fill:url(#linearGradient505);fill-opacity:1;stroke:url(#linearGradient507);stroke-width:4.5706px;stroke-linecap:butt;stroke-opacity:1" /><path
             d="m 1467.9229,557.92616 h 47.5342 l 58.785,-219.38878 h -47.5342 z"
             id="path382"
             style="font-weight:900;font-size:136px;font-family:Orbitron-Black, Orbitron;fill:url(#linearGradient509);fill-opacity:1;stroke:url(#linearGradient511);stroke-width:4.5706px;stroke-linecap:butt;stroke-opacity:1" /><path
             d="m 1639.1445,338.53738 c -24.986,0 -50.4853,20.11063 -57.1802,45.09658 l -46.7014,174.2922 h 47.2295 l 18.9418,-70.69194 h 124.3203 l -18.9418,70.69194 h 47.8389 l 46.7015,-174.2922 c 6.6949,-24.98595 -8.3318,-45.09658 -33.3177,-45.09658 z m -24.9735,101.1626 14.3696,-53.62837 h 124.3204 l -14.3697,53.62837 z"
             id="path384"
             style="font-weight:900;font-size:136px;font-family:Orbitron-Black, Orbitron;fill:url(#linearGradient513);fill-opacity:1;stroke:url(#linearGradient515);stroke-width:4.5706px;stroke-linecap:butt;stroke-opacity:1" /></g><g
           id="g31354"><path
             d="m 971.22954,402.44728 c 6.64,5.944 7.2,16.158 1.25,22.792 -5.94,6.635 -16.16,7.196 -22.791,1.251 -6.635,-5.945 -7.196,-16.158 -1.251,-22.793 5.945,-6.635 16.162,-7.195 22.792,-1.25 z"
             style="fill:none;stroke:url(#linearGradient517);stroke-width:12.91px;stroke-linejoin:miter;stroke-miterlimit:10;stroke-opacity:1"
             id="path10" /><path
             d="m 6.526538,244.17328 c 0,0 -16.375,30.707 2.751,53.257 10.978,12.945 33.735,23.272 78.311003,23.334 0,0 43.807999,-0.055 110.486999,0.289 22.264,0.115 47.075,0.292 73.658,0.569 82.761,0.862 182.647,2.736 276.218,3.626 31.727,0.302 62.723,0.428 92.073,0.542 110.086,0.429 197.01,0.417 212.408,0.411 -10e-4,0 91.697,82.305 91.697,82.305 2.654,2.378 6.739,2.153 9.117,-0.501 2.383,-2.654 2.153,-6.739 -0.5,-9.117 l -93.651,-83.761 c -1.164,-1.043 -2.672,-1.619 -4.235,-1.619 0,0 -93.303,-0.065 -214.836,0.409 -29.351,0.115 -60.347,0.241 -92.073,0.543 -93.571,0.889 -193.457,2.763 -276.218,3.626 -26.583,0.277 -51.395,0.453 -73.659,0.568 -66.679,0.345 -110.485999,0.289 -110.485999,0.289 -43.821003,0.062 -66.275003,-9.845 -77.102003,-22.541 -18.575,-21.778 -2.694,-51.554 -2.694,-51.554 0.187,-0.35 0.054,-0.785 -0.295,-0.971 -0.349,-0.186 -0.784,-0.054 -0.971,0.296 z"
             id="path12"
             style="fill:url(#linearGradient519);fill-opacity:1" /></g><g
           id="g30210"><path
             d="m 999.89584,38.73823 c -8.91,0 -16.1401,-7.233 -16.1401,-16.142 0,-8.908 7.2301,-16.141 16.1401,-16.141 8.91006,0 16.14006,7.233 16.14006,16.141 0,8.909 -7.23,16.142 -16.14006,16.142 z"
             style="fill:none;stroke:url(#linearGradient521);stroke-width:12.91px;stroke-linejoin:miter;stroke-miterlimit:10;stroke-opacity:1"
             id="path16" /><path
             d="m 1813.45,124.47924 c 0,0 20.2801,-46.92801 -26.1702,-77.51101 -22.8701,-15.061 -62.0403,-26.205 -128.1306,-25.631 -0.3,-0.003 -30.1302,-0.245 -77.1704,-0.905 -46.9702,-0.659 -111.0706,-2.034 -180.0709,-2.942 -21.1001,-0.277 -42.6502,-0.509 -64.3104,-0.641 -127.3806,-0.776 -258.3813,-0.57 -321.5616,-0.709 -3.56,0 -6.46,2.893 -6.46,6.456 0,3.564 2.9,6.457 6.46,6.457 63.1803,-0.139 194.181,0.066 321.5616,-0.709 21.6602,-0.132 43.2103,-0.364 64.3104,-0.641 69.0003,-0.908 133.1007,-2.283 180.0709,-2.942 47.2802,-0.663 77.1704,-0.905 77.1704,-0.905 0.01,0 0.01,0 0.02,0 65.5003,-0.965 104.4205,9.733 127.1706,24.555 45.4303,29.615 25.7902,75.50101 25.7902,75.50101 -0.15,0.363 0.02,0.786 0.38,0.942 0.36,0.157 0.79,-0.012 0.94,-0.375 z"
             id="path18"
             style="fill:url(#linearGradient26525);fill-opacity:1;stroke-width:1" /></g></g></g><g
       aria-label="KAUPPA"
       id="text622"
       style="font-size:366.667px;line-height:1.25;font-family:'Bebas Neue';-inkscape-font-specification:'Bebas Neue';display:inline;fill:#ffffff"
       transform="translate(153.86265)"><path
         d="m 1690.8858,123.83973 h 40.3333 v 108.16676 l 51.3334,-108.16676 h 40.3334 l -48.0334,94.23341 48.7667,162.43348 h -42.1667 l -34.1,-114.4001 -16.1334,32.63336 v 81.76674 h -40.3333 z"
         id="path630" /><path
         d="m 1873.8524,123.83973 h 54.6334 l 41.8,256.66689 h -40.3333 l -7.3334,-50.96671 v 0.73333 h -45.8333 l -7.3334,50.23338 h -37.4 z m 44.0001,171.60015 -17.9667,-126.86678 h -0.7333 l -17.6001,126.86678 z"
         id="path632" /><path
         d="m 2047.652,384.17329 q -29.3334,0 -44.7334,-16.50001 -15.4,-16.86668 -15.4,-48.03338 V 123.83973 h 40.3334 v 198.73351 q 0,13.20001 5.1333,19.06668 5.5,5.86667 15.4,5.86667 9.9,0 15.0334,-5.86667 5.5,-5.86667 5.5,-19.06668 V 123.83973 h 38.8667 V 319.6399 q 0,31.1667 -15.4001,48.03338 -15.4,16.50001 -44.7333,16.50001 z"
         id="path634" /><path
         d="m 2136.3848,123.83973 h 59.4001 q 30.0667,0 45.1,16.13335 15.0334,16.13334 15.0334,47.30004 v 25.30002 q 0,31.16669 -15.0334,47.30004 -15.0333,16.13335 -45.1,16.13335 h -19.0667 v 104.50009 h -40.3334 z m 59.4001,115.5001 q 9.9,0 14.6667,-5.5 5.1333,-5.50001 5.1333,-18.70002 v -30.43336 q 0,-13.20001 -5.1333,-18.70002 -4.7667,-5.5 -14.6667,-5.5 h -19.0667 v 78.8334 z"
         id="path636" /><path
         d="m 2277.9182,123.83973 h 59.4 q 30.0667,0 45.1001,16.13335 15.0333,16.13334 15.0333,47.30004 v 25.30002 q 0,31.16669 -15.0333,47.30004 -15.0334,16.13335 -45.1001,16.13335 h -19.0667 v 104.50009 h -40.3333 z m 59.4,115.5001 q 9.9,0 14.6667,-5.5 5.1333,-5.50001 5.1333,-18.70002 v -30.43336 q 0,-13.20001 -5.1333,-18.70002 -4.7667,-5.5 -14.6667,-5.5 h -19.0667 v 78.8334 z"
         id="path638" /><path
         d="m 2437.7842,123.83973 h 54.6334 l 41.8,256.66689 h -40.3333 l -7.3334,-50.96671 v 0.73333 h -45.8334 l -7.3333,50.23338 h -37.4 z m 44,171.60015 -17.9666,-126.86678 h -0.7334 l -17.6,126.86678 z"
         id="path640" /></g><g
       aria-label="|"
       id="g626"
       style="font-size:333.333px;line-height:1.25;font-family:'Bebas Neue';-inkscape-font-specification:'Bebas Neue';fill:#ffffff"
       transform="matrix(0.41219098,0,0,1,1068.515,85.951715)"><path
         d="m 1610.5823,1.3882812 h 30 V 334.72129 h -30 z"
         id="path624"
         style="fill:#ffffff" /></g></g></g></svg>
